# xmcd
#
# Track frame offsets:
#	182
#	13060
#	31805
#	44332
#	62632
#	87460
#	103210
#	116035
#	135085
#	146705
#	162985
#	174235
#	187735
#	201910
#	216307
#	232660
#	254032
#	269487
#	294080
#
# Disc length: 4264 seconds
#
# Revision: 0
# Processed by: cddbd v1.5.2PL0 Copyright (c) Steve Scherf et al.
# Submitted via: VUPlayer 2.49
#
DISCID=0f10a613
DTITLE=Pete Wells - It's All Fun and Games 'til Somebody Gets Hurt
DYEAR=1998
DGENRE=Blues Rock
TTITLE0=Can't Stand Up
TTITLE1=Sideshow Blues
TTITLE2=That's Alright
TTITLE3=Taking The Pain Away
TTITLE4=Tiptoe Through The Wreckage
TTITLE5=I'm Ready
TTITLE6=Born To Lose
TTITLE7=I Believe In Everything
TTITLE8=You're So Square
TTITLE9=Back Door Man
TTITLE10=Don't Lie To Me
TTITLE11=Matchbox
TTITLE12=Fire Dancing
TTITLE13=Nadine
TTITLE14=Get Off My Cloud
TTITLE15=Jungle
TTITLE16=Nothing Wrong With Money
TTITLE17=Still Got The Boogie
TTITLE18=Saddle and The Ground
EXTD=
EXTT0=
EXTT1=
EXTT2=
EXTT3=
EXTT4=
EXTT5=
EXTT6=
EXTT7=
EXTT8=
EXTT9=
EXTT10=
EXTT11=
EXTT12=
EXTT13=
EXTT14=
EXTT15=
EXTT16=
EXTT17=
EXTT18=
PLAYORDER=
